<?xml version="1.0" encoding="UTF-8" standalone="no"?>
<!-- Created with Inkscape (http://www.inkscape.org/) -->

<svg
   xmlns:dc="http://purl.org/dc/elements/1.1/"
   xmlns:cc="http://creativecommons.org/ns#"
   xmlns:rdf="http://www.w3.org/1999/02/22-rdf-syntax-ns#"
   xmlns:svg="http://www.w3.org/2000/svg"
   xmlns="http://www.w3.org/2000/svg"
   xmlns:sodipodi="http://sodipodi.sourceforge.net/DTD/sodipodi-0.dtd"
   xmlns:inkscape="http://www.inkscape.org/namespaces/inkscape"
   width="1024"
   height="1024"
   viewBox="0 0 270.93332 270.93334"
   version="1.1"
   id="svg8"
   inkscape:version="0.92.4 (5da689c313, 2019-01-14)"
   sodipodi:docname="cubemap_ruby.svg"
   inkscape:export-filename="C:\Users\hampu\Documents\Unity\Puzzle Quest\Assets\Textures\cubemap_ruby.png"
   inkscape:export-xdpi="96"
   inkscape:export-ydpi="96">
  <defs
     id="defs2" />
  <sodipodi:namedview
     id="base"
     pagecolor="#ffffff"
     bordercolor="#666666"
     borderopacity="1.0"
     inkscape:pageopacity="0.0"
     inkscape:pageshadow="2"
     inkscape:zoom="0.7"
     inkscape:cx="186.7935"
     inkscape:cy="534.10694"
     inkscape:document-units="mm"
     inkscape:current-layer="layer1"
     showgrid="true"
     units="px"
     inkscape:window-width="1920"
     inkscape:window-height="1027"
     inkscape:window-x="-8"
     inkscape:window-y="-8"
     inkscape:window-maximized="1">
    <inkscape:grid
       type="xygrid"
       id="grid815"
       spacingx="4.2333333"
       spacingy="4.2333333"
       empspacing="4" />
  </sodipodi:namedview>
  <metadata
     id="metadata5">
    <rdf:RDF>
      <cc:Work
         rdf:about="">
        <dc:format>image/svg+xml</dc:format>
        <dc:type
           rdf:resource="http://purl.org/dc/dcmitype/StillImage" />
        <dc:title></dc:title>
      </cc:Work>
    </rdf:RDF>
  </metadata>
  <g
     inkscape:label="Layer 1"
     inkscape:groupmode="layer"
     id="layer1"
     transform="translate(0,-26.066653)">
    <rect
       style="fill:#808080;fill-opacity:1;stroke:none;stroke-width:1.05833328;stroke-linecap:butt;stroke-linejoin:miter;stroke-miterlimit:4;stroke-dasharray:none;stroke-opacity:1;paint-order:normal"
       id="rect959"
       width="270.93332"
       height="270.93332"
       x="0"
       y="26.066654" />
    <path
       style="fill:#ffffff;fill-opacity:1;stroke:none;stroke-width:3.99999976;stroke-linecap:butt;stroke-linejoin:miter;stroke-miterlimit:4;stroke-dasharray:none;stroke-opacity:1"
       d="M 64 0 L 0 128 L 64 256 L 128 128 L 64 0 z M 128 128 L 192 256 L 256 128 L 192 0 L 128 128 z M 256 128 L 320 256 L 384 128 L 320 0 L 256 128 z M 384 128 L 448 256 L 512 128 L 448 0 L 384 128 z M 512 128 L 576 256 L 640 128 L 576 0 L 512 128 z M 640 128 L 704 256 L 768 128 L 704 0 L 640 128 z M 768 128 L 832 256 L 896 128 L 832 0 L 768 128 z M 896 128 L 960 256 L 1024 128 L 960 0 L 896 128 z M 960 256 L 896 384 L 960 512 L 1024 384 L 960 256 z M 960 512 L 896 640 L 960 768 L 1024 640 L 960 512 z M 960 768 L 896 896 L 960 1024 L 1024 896 L 960 768 z M 896 896 L 832 768 L 768 896 L 832 1024 L 896 896 z M 768 896 L 704 768 L 640 896 L 704 1024 L 768 896 z M 640 896 L 576 768 L 512 896 L 576 1024 L 640 896 z M 512 896 L 448 768 L 384 896 L 448 1024 L 512 896 z M 384 896 L 320 768 L 256 896 L 320 1024 L 384 896 z M 256 896 L 192 768 L 128 896 L 192 1024 L 256 896 z M 128 896 L 64 768 L 0 896 L 64 1024 L 128 896 z M 64 768 L 128 640 L 64 512 L 0 640 L 64 768 z M 64 512 L 128 384 L 64 256 L 0 384 L 64 512 z M 128 384 L 192 512 L 256 384 L 192 256 L 128 384 z M 256 384 L 320 512 L 384 384 L 320 256 L 256 384 z M 384 384 L 448 512 L 512 384 L 448 256 L 384 384 z M 512 384 L 576 512 L 640 384 L 576 256 L 512 384 z M 640 384 L 704 512 L 768 384 L 704 256 L 640 384 z M 768 384 L 832 512 L 896 384 L 832 256 L 768 384 z M 832 512 L 768 640 L 832 768 L 896 640 L 832 512 z M 768 640 L 704 512 L 640 640 L 704 768 L 768 640 z M 640 640 L 576 512 L 512 640 L 576 768 L 640 640 z M 512 640 L 448 512 L 384 640 L 448 768 L 512 640 z M 384 640 L 320 512 L 256 640 L 320 768 L 384 640 z M 256 640 L 192 512 L 128 640 L 192 768 L 256 640 z "
       transform="matrix(0.26458333,0,0,0.26458333,0,26.066653)"
       id="path821" />
  </g>
</svg>
